<mxfile host="app.diagrams.net" agent="Mozilla/5.0 (Windows NT 10.0; Win64; x64) AppleWebKit/537.36 (KHTML, like Gecko) Chrome/133.0.0.0 Safari/537.36" version="26.0.14">
  <diagram name="Página-1" id="BfTWOROo_lzX_7FTMUIR">
    <mxGraphModel dx="1050" dy="3873" grid="1" gridSize="10" guides="1" tooltips="1" connect="1" arrows="1" fold="1" page="1" pageScale="1" pageWidth="583" pageHeight="827" math="0" shadow="0">
      <root>
        <mxCell id="0" />
        <mxCell id="1" parent="0" />
        <mxCell id="FdZpmkmHTY-yCPTN8Om4-6" style="edgeStyle=orthogonalEdgeStyle;rounded=0;orthogonalLoop=1;jettySize=auto;html=1;exitX=0.5;exitY=1;exitDx=0;exitDy=0;" edge="1" parent="1" source="FdZpmkmHTY-yCPTN8Om4-4" target="FdZpmkmHTY-yCPTN8Om4-5">
          <mxGeometry relative="1" as="geometry" />
        </mxCell>
        <mxCell id="FdZpmkmHTY-yCPTN8Om4-4" value="inicio" style="ellipse;whiteSpace=wrap;html=1;fillColor=#d5e8d4;strokeColor=#82b366;" vertex="1" parent="1">
          <mxGeometry x="20" y="-2190" width="120" height="80" as="geometry" />
        </mxCell>
        <mxCell id="FdZpmkmHTY-yCPTN8Om4-5" value="receber a base do triangulo&lt;div&gt;&lt;br&gt;&lt;/div&gt;" style="shape=parallelogram;perimeter=parallelogramPerimeter;whiteSpace=wrap;html=1;fixedSize=1;rounded=1;fillColor=#ffe6cc;strokeColor=#d79b00;" vertex="1" parent="1">
          <mxGeometry x="20" y="-2070" width="120" height="60" as="geometry" />
        </mxCell>
        <mxCell id="FdZpmkmHTY-yCPTN8Om4-9" style="edgeStyle=orthogonalEdgeStyle;rounded=0;orthogonalLoop=1;jettySize=auto;html=1;exitX=0.5;exitY=1;exitDx=0;exitDy=0;entryX=0.573;entryY=0.01;entryDx=0;entryDy=0;entryPerimeter=0;" edge="1" parent="1" source="FdZpmkmHTY-yCPTN8Om4-5">
          <mxGeometry relative="1" as="geometry">
            <mxPoint x="78.75999999999999" y="-1979.4" as="targetPoint" />
          </mxGeometry>
        </mxCell>
        <mxCell id="FdZpmkmHTY-yCPTN8Om4-12" style="edgeStyle=orthogonalEdgeStyle;rounded=0;orthogonalLoop=1;jettySize=auto;html=1;exitX=0.5;exitY=1;exitDx=0;exitDy=0;entryX=0.5;entryY=0;entryDx=0;entryDy=0;" edge="1" parent="1" source="FdZpmkmHTY-yCPTN8Om4-10" target="FdZpmkmHTY-yCPTN8Om4-11">
          <mxGeometry relative="1" as="geometry" />
        </mxCell>
        <mxCell id="FdZpmkmHTY-yCPTN8Om4-10" value="receber a altura do triangulo" style="shape=parallelogram;perimeter=parallelogramPerimeter;whiteSpace=wrap;html=1;fixedSize=1;rounded=1;fillColor=#ffe6cc;strokeColor=#d79b00;" vertex="1" parent="1">
          <mxGeometry x="20" y="-1980" width="120" height="60" as="geometry" />
        </mxCell>
        <mxCell id="FdZpmkmHTY-yCPTN8Om4-14" style="edgeStyle=orthogonalEdgeStyle;rounded=0;orthogonalLoop=1;jettySize=auto;html=1;exitX=1;exitY=0.5;exitDx=0;exitDy=0;entryX=0;entryY=0.5;entryDx=0;entryDy=0;" edge="1" parent="1" source="FdZpmkmHTY-yCPTN8Om4-11" target="FdZpmkmHTY-yCPTN8Om4-13">
          <mxGeometry relative="1" as="geometry" />
        </mxCell>
        <mxCell id="FdZpmkmHTY-yCPTN8Om4-11" value="multiplicar os dois valores para obter a área do triangulo" style="rounded=1;whiteSpace=wrap;html=1;fillColor=#ffe6cc;strokeColor=#d79b00;" vertex="1" parent="1">
          <mxGeometry x="20" y="-1880" width="120" height="60" as="geometry" />
        </mxCell>
        <mxCell id="FdZpmkmHTY-yCPTN8Om4-16" style="edgeStyle=orthogonalEdgeStyle;rounded=0;orthogonalLoop=1;jettySize=auto;html=1;exitX=0.5;exitY=0;exitDx=0;exitDy=0;" edge="1" parent="1" source="FdZpmkmHTY-yCPTN8Om4-13" target="FdZpmkmHTY-yCPTN8Om4-15">
          <mxGeometry relative="1" as="geometry" />
        </mxCell>
        <mxCell id="FdZpmkmHTY-yCPTN8Om4-13" value="obter resultado" style="rounded=1;whiteSpace=wrap;html=1;fillColor=#ffe6cc;strokeColor=#d79b00;" vertex="1" parent="1">
          <mxGeometry x="180" y="-1880" width="120" height="60" as="geometry" />
        </mxCell>
        <mxCell id="FdZpmkmHTY-yCPTN8Om4-15" value="fim" style="ellipse;whiteSpace=wrap;html=1;fillColor=#f8cecc;strokeColor=#b85450;" vertex="1" parent="1">
          <mxGeometry x="180" y="-2000" width="120" height="80" as="geometry" />
        </mxCell>
        <mxCell id="FdZpmkmHTY-yCPTN8Om4-19" style="edgeStyle=orthogonalEdgeStyle;rounded=0;orthogonalLoop=1;jettySize=auto;html=1;exitX=0.5;exitY=1;exitDx=0;exitDy=0;entryX=0.5;entryY=0;entryDx=0;entryDy=0;" edge="1" parent="1" source="FdZpmkmHTY-yCPTN8Om4-17" target="FdZpmkmHTY-yCPTN8Om4-18">
          <mxGeometry relative="1" as="geometry" />
        </mxCell>
        <mxCell id="FdZpmkmHTY-yCPTN8Om4-17" value="inicio" style="ellipse;whiteSpace=wrap;html=1;fillColor=#d5e8d4;strokeColor=#82b366;" vertex="1" parent="1">
          <mxGeometry x="940" y="-3090" width="120" height="80" as="geometry" />
        </mxCell>
        <mxCell id="FdZpmkmHTY-yCPTN8Om4-21" style="edgeStyle=orthogonalEdgeStyle;rounded=0;orthogonalLoop=1;jettySize=auto;html=1;exitX=0.5;exitY=1;exitDx=0;exitDy=0;" edge="1" parent="1" source="FdZpmkmHTY-yCPTN8Om4-18" target="FdZpmkmHTY-yCPTN8Om4-20">
          <mxGeometry relative="1" as="geometry" />
        </mxCell>
        <mxCell id="FdZpmkmHTY-yCPTN8Om4-18" value="receber um numero do usuário&amp;nbsp;" style="shape=parallelogram;perimeter=parallelogramPerimeter;whiteSpace=wrap;html=1;fixedSize=1;rounded=1;fillColor=#ffe6cc;strokeColor=#d79b00;" vertex="1" parent="1">
          <mxGeometry x="940" y="-2980" width="120" height="60" as="geometry" />
        </mxCell>
        <mxCell id="FdZpmkmHTY-yCPTN8Om4-23" style="edgeStyle=orthogonalEdgeStyle;rounded=0;orthogonalLoop=1;jettySize=auto;html=1;exitX=0.5;exitY=1;exitDx=0;exitDy=0;entryX=0.5;entryY=0;entryDx=0;entryDy=0;" edge="1" parent="1" source="FdZpmkmHTY-yCPTN8Om4-20" target="FdZpmkmHTY-yCPTN8Om4-22">
          <mxGeometry relative="1" as="geometry" />
        </mxCell>
        <mxCell id="FdZpmkmHTY-yCPTN8Om4-20" value="multiplicar&lt;span style=&quot;background-color: transparent; color: light-dark(rgb(0, 0, 0), rgb(255, 255, 255));&quot;&gt;&amp;nbsp;o numero recebido&amp;nbsp;&amp;nbsp;&lt;/span&gt;" style="shape=parallelogram;perimeter=parallelogramPerimeter;whiteSpace=wrap;html=1;fixedSize=1;rounded=1;fillColor=#ffe6cc;strokeColor=#d79b00;" vertex="1" parent="1">
          <mxGeometry x="940" y="-2880" width="120" height="60" as="geometry" />
        </mxCell>
        <mxCell id="FdZpmkmHTY-yCPTN8Om4-25" style="edgeStyle=orthogonalEdgeStyle;rounded=0;orthogonalLoop=1;jettySize=auto;html=1;exitX=0;exitY=0.5;exitDx=0;exitDy=0;" edge="1" parent="1" source="FdZpmkmHTY-yCPTN8Om4-22" target="FdZpmkmHTY-yCPTN8Om4-24">
          <mxGeometry relative="1" as="geometry" />
        </mxCell>
        <mxCell id="FdZpmkmHTY-yCPTN8Om4-22" value="receber apenas metade desse numero multiplicado&amp;nbsp;" style="rounded=1;whiteSpace=wrap;html=1;fillColor=#ffe6cc;strokeColor=#d79b00;" vertex="1" parent="1">
          <mxGeometry x="940" y="-2780" width="120" height="60" as="geometry" />
        </mxCell>
        <mxCell id="FdZpmkmHTY-yCPTN8Om4-27" style="edgeStyle=orthogonalEdgeStyle;rounded=0;orthogonalLoop=1;jettySize=auto;html=1;exitX=0.5;exitY=0;exitDx=0;exitDy=0;entryX=0.5;entryY=1;entryDx=0;entryDy=0;" edge="1" parent="1" source="FdZpmkmHTY-yCPTN8Om4-24" target="FdZpmkmHTY-yCPTN8Om4-26">
          <mxGeometry relative="1" as="geometry" />
        </mxCell>
        <mxCell id="FdZpmkmHTY-yCPTN8Om4-24" value="obter resultado" style="rounded=1;whiteSpace=wrap;html=1;fillColor=#ffe6cc;strokeColor=#d79b00;" vertex="1" parent="1">
          <mxGeometry x="770" y="-2780" width="120" height="60" as="geometry" />
        </mxCell>
        <mxCell id="FdZpmkmHTY-yCPTN8Om4-26" value="fim" style="ellipse;whiteSpace=wrap;html=1;fillColor=#f8cecc;strokeColor=#b85450;" vertex="1" parent="1">
          <mxGeometry x="770" y="-2900" width="120" height="80" as="geometry" />
        </mxCell>
        <mxCell id="FdZpmkmHTY-yCPTN8Om4-31" style="edgeStyle=orthogonalEdgeStyle;rounded=0;orthogonalLoop=1;jettySize=auto;html=1;exitX=0.5;exitY=1;exitDx=0;exitDy=0;entryX=0.5;entryY=0;entryDx=0;entryDy=0;" edge="1" parent="1" source="FdZpmkmHTY-yCPTN8Om4-28" target="FdZpmkmHTY-yCPTN8Om4-29">
          <mxGeometry relative="1" as="geometry" />
        </mxCell>
        <mxCell id="FdZpmkmHTY-yCPTN8Om4-28" value="inicio" style="ellipse;whiteSpace=wrap;html=1;fillColor=#d5e8d4;strokeColor=#82b366;" vertex="1" parent="1">
          <mxGeometry x="534" y="-2780" width="120" height="80" as="geometry" />
        </mxCell>
        <mxCell id="FdZpmkmHTY-yCPTN8Om4-32" style="edgeStyle=orthogonalEdgeStyle;rounded=0;orthogonalLoop=1;jettySize=auto;html=1;exitX=0.5;exitY=1;exitDx=0;exitDy=0;entryX=0.5;entryY=0;entryDx=0;entryDy=0;" edge="1" parent="1" target="FdZpmkmHTY-yCPTN8Om4-30">
          <mxGeometry relative="1" as="geometry">
            <mxPoint x="594" y="-2610" as="sourcePoint" />
          </mxGeometry>
        </mxCell>
        <mxCell id="FdZpmkmHTY-yCPTN8Om4-29" value="obter 1º nota" style="shape=parallelogram;perimeter=parallelogramPerimeter;whiteSpace=wrap;html=1;fixedSize=1;rounded=1;fillColor=#ffe6cc;strokeColor=#d79b00;" vertex="1" parent="1">
          <mxGeometry x="534" y="-2670" width="120" height="60" as="geometry" />
        </mxCell>
        <mxCell id="FdZpmkmHTY-yCPTN8Om4-30" value="obter 2º nota" style="shape=parallelogram;perimeter=parallelogramPerimeter;whiteSpace=wrap;html=1;fixedSize=1;rounded=1;fillColor=#ffe6cc;strokeColor=#d79b00;" vertex="1" parent="1">
          <mxGeometry x="534" y="-2580" width="120" height="60" as="geometry" />
        </mxCell>
        <mxCell id="FdZpmkmHTY-yCPTN8Om4-38" style="edgeStyle=orthogonalEdgeStyle;rounded=0;orthogonalLoop=1;jettySize=auto;html=1;exitX=0.5;exitY=1;exitDx=0;exitDy=0;entryX=0.5;entryY=0;entryDx=0;entryDy=0;" edge="1" parent="1" source="FdZpmkmHTY-yCPTN8Om4-33" target="FdZpmkmHTY-yCPTN8Om4-36">
          <mxGeometry relative="1" as="geometry" />
        </mxCell>
        <mxCell id="FdZpmkmHTY-yCPTN8Om4-33" value="calcular a media" style="rounded=1;whiteSpace=wrap;html=1;fillColor=#e1d5e7;strokeColor=#9673a6;" vertex="1" parent="1">
          <mxGeometry x="540" y="-2480" width="120" height="60" as="geometry" />
        </mxCell>
        <mxCell id="FdZpmkmHTY-yCPTN8Om4-35" style="edgeStyle=orthogonalEdgeStyle;rounded=0;orthogonalLoop=1;jettySize=auto;html=1;exitX=0.5;exitY=1;exitDx=0;exitDy=0;entryX=0.443;entryY=0.003;entryDx=0;entryDy=0;entryPerimeter=0;" edge="1" parent="1" source="FdZpmkmHTY-yCPTN8Om4-30" target="FdZpmkmHTY-yCPTN8Om4-33">
          <mxGeometry relative="1" as="geometry" />
        </mxCell>
        <mxCell id="FdZpmkmHTY-yCPTN8Om4-40" value="sim" style="edgeStyle=orthogonalEdgeStyle;rounded=0;orthogonalLoop=1;jettySize=auto;html=1;exitX=1;exitY=0.5;exitDx=0;exitDy=0;entryX=0.5;entryY=0;entryDx=0;entryDy=0;entryPerimeter=0;" edge="1" parent="1" source="FdZpmkmHTY-yCPTN8Om4-36" target="FdZpmkmHTY-yCPTN8Om4-39">
          <mxGeometry relative="1" as="geometry">
            <mxPoint x="780" y="-2340" as="targetPoint" />
          </mxGeometry>
        </mxCell>
        <mxCell id="FdZpmkmHTY-yCPTN8Om4-42" value="nao" style="edgeStyle=orthogonalEdgeStyle;rounded=0;orthogonalLoop=1;jettySize=auto;html=1;exitX=0;exitY=0.5;exitDx=0;exitDy=0;entryX=0.252;entryY=0.003;entryDx=0;entryDy=0;entryPerimeter=0;" edge="1" parent="1" source="FdZpmkmHTY-yCPTN8Om4-36" target="FdZpmkmHTY-yCPTN8Om4-41">
          <mxGeometry relative="1" as="geometry">
            <mxPoint x="440" y="-2340" as="targetPoint" />
          </mxGeometry>
        </mxCell>
        <mxCell id="FdZpmkmHTY-yCPTN8Om4-36" value="media é acima de 7 ?" style="rhombus;whiteSpace=wrap;html=1;fillColor=#fff2cc;strokeColor=#d6b656;" vertex="1" parent="1">
          <mxGeometry x="540" y="-2380" width="120" height="80" as="geometry" />
        </mxCell>
        <mxCell id="FdZpmkmHTY-yCPTN8Om4-39" value="exibir aprovado" style="strokeWidth=2;html=1;shape=mxgraph.flowchart.delay;whiteSpace=wrap;fillColor=#ffe6cc;strokeColor=#d79b00;" vertex="1" parent="1">
          <mxGeometry x="740" y="-2300" width="100" height="60" as="geometry" />
        </mxCell>
        <mxCell id="FdZpmkmHTY-yCPTN8Om4-45" style="edgeStyle=orthogonalEdgeStyle;rounded=0;orthogonalLoop=1;jettySize=auto;html=1;exitX=0.5;exitY=1;exitDx=0;exitDy=0;exitPerimeter=0;entryX=0.5;entryY=0;entryDx=0;entryDy=0;" edge="1" parent="1" source="FdZpmkmHTY-yCPTN8Om4-41" target="FdZpmkmHTY-yCPTN8Om4-44">
          <mxGeometry relative="1" as="geometry" />
        </mxCell>
        <mxCell id="FdZpmkmHTY-yCPTN8Om4-41" value="exibir reprovado" style="strokeWidth=2;html=1;shape=mxgraph.flowchart.delay;whiteSpace=wrap;fillColor=#ffe6cc;strokeColor=#d79b00;" vertex="1" parent="1">
          <mxGeometry x="390" y="-2300" width="100" height="60" as="geometry" />
        </mxCell>
        <mxCell id="FdZpmkmHTY-yCPTN8Om4-44" value="fim" style="ellipse;whiteSpace=wrap;html=1;fillColor=#f8cecc;strokeColor=#b85450;" vertex="1" parent="1">
          <mxGeometry x="430" y="-2210" width="120" height="80" as="geometry" />
        </mxCell>
      </root>
    </mxGraphModel>
  </diagram>
</mxfile>
